<?xml version="1.0" encoding="utf-8"?>
<svg version="1.1" id="Layer_1" xmlns="http://www.w3.org/2000/svg" xmlns:xlink="http://www.w3.org/1999/xlink" x="0px"
  y="0px" viewBox="0 0 2000 2000" style="enable-background:new 0 0 2000 2000;" xml:space="preserve">
  <style type="text/css">
    .st0 {
      fill: url(#SVGID_1_);
    }

    .st1 {
      opacity: 0.3;
      fill: #FFFFFF;
    }
  </style>
  <linearGradient id="SVGID_1_" gradientUnits="userSpaceOnUse" x1="39.77" y1="1540.48" x2="40.77" y2="1540.48"
    gradientTransform="matrix(1.224647e-13 2000 2000 -1.224647e-13 -3079958 -79538)">
    <stop offset="0" style="stop-color:#47fff7;stop-opacity:0.75" />
    <stop offset="1" style="stop-color:#ff4747;stop-opacity:0.75" />
  </linearGradient>
  <rect x="0" y="0" class="st0" width="2000" height="2000" />
  <circle class="st1" cx="1198" cy="871.1" r="87" />
  <path id="Selection" class="st1" d="M516.9,596.5h31h55h169h515h199c3.4,0,13,0.9,16,2.1c6.2,2.4,14.4,10.5,16.3,16.9
	c0.8,2.5,0.7,5.4,0.7,8v599v154c0,2.6,0.1,5.6-0.7,8c-2.1,6.7-10.8,15.1-17.3,17.4c-4.2,1.5-8.6,1.6-13,1.6h-766h-202
	c-10.8-0.1-17.3-2.4-24.4-11c-2-2.5-3.9-4.9-4.8-8c-0.9-2.9-0.8-6-0.8-9v-595v-136l0.6-28c1.8-6.7,9.3-14.3,15.4-17.3
	C509.3,597.5,513.2,597.4,516.9,596.5z M624.9,706.5c-3.7,1-4.6,1.3-8,3.1c-16.7,8.8-15,21.5-15,37.8v31v222v225v14
	c0,11.9-1.8,35.4,4.8,44.9c2.2,3.1,7.7,6.8,11.2,8.1c3,1.2,5.8,1,9,1h400h293h60c19.3,0,29-12.5,29-31v-427v-100
	c0-17.3-7.6-29-26-28.9h-505h-168h-55H624.9z M879.9,821.4c0.7,0,1.3-0.5,3,0c3.2,0.6,11.5,11.2,14,14.1l21.3,26l21.8,26l65.6,79
	l59.9,72l34.8,42.3c3.4,4,13,16.6,16.6,18.7c5.4,3,9.7-0.7,14-3.7l17-10.3l9-6.2l21-13l35-21.8l35-22l20-12.5l8-4.6l15-9.7
	c2.6-1.7,6.5-4,9.6-2c2.9,1.9,2.4,6.8,2.4,9.8v165v33c0,3.9,0.6,10.7-1.7,13.8c-2.7,3.6-7.2,3.2-11.3,3.2h-448h-104h-21
	c-3.5-0.1-6.9-0.1-9.3-3.2c-2-2.7-1.7-6.6-1.7-9.8v-94c0.1-10,7.1-18.6,12.1-27l27.9-46l30.3-50l3.7-7l14-23l10.8-17l36.2-60l9.9-17
	l12-19C867,838,872.9,826.1,879.9,821.4z" />
</svg>