<?xml version="1.0" standalone="no"?>
<!DOCTYPE svg PUBLIC "-//W3C//DTD SVG 20010904//EN"
 "http://www.w3.org/TR/2001/REC-SVG-20010904/DTD/svg10.dtd">
<svg version="1.0" xmlns="http://www.w3.org/2000/svg"
 width="220.000000pt" height="123.000000pt" viewBox="0 0 220.000000 123.000000"
 preserveAspectRatio="xMidYMid meet">

<g transform="translate(0.000000,123.000000) scale(0.100000,-0.100000)"
fill="#000000" stroke="none">
<path d="M0 615 l0 -615 1100 0 1100 0 0 615 0 615 -86 0 c-94 0 -120 -9 -134
-46 -6 -16 -17 -24 -33 -24 -30 0 -60 31 -51 54 5 14 -3 16 -64 16 l-70 0 3
-72 c3 -86 9 -102 41 -123 27 -17 32 -53 9 -61 -8 -4 -27 2 -43 12 -15 10 -35
19 -45 19 -34 3 -42 24 -45 125 l-4 100 -839 0 -839 0 0 -615z m1435 549 c118
-57 188 -155 203 -284 5 -47 -4 -55 -10 -8 -2 14 -9 32 -15 39 -6 8 -14 33
-18 56 -8 51 -25 58 -70 32 -49 -29 -62 -55 -34 -69 15 -9 18 -15 9 -25 -8 -9
-8 -15 0 -20 25 -15 8 -32 -38 -38 -27 -3 -65 -15 -85 -27 l-37 -22 0 -71 c0
-40 7 -105 15 -146 9 -41 14 -80 11 -86 -10 -28 -68 -24 -149 10 -15 6 -17 3
-15 -25 2 -22 -3 -36 -15 -44 -24 -15 -42 12 -22 34 7 8 25 38 41 65 29 53 25
52 -40 -8 -17 -16 -43 -35 -58 -43 -16 -8 -28 -19 -28 -24 0 -6 -4 -10 -10
-10 -5 0 -10 7 -10 15 0 9 -12 21 -26 27 -25 12 -25 13 -20 92 3 45 6 89 8 98
3 24 61 43 87 29 11 -6 27 -11 36 -11 14 0 13 3 -5 18 -22 18 -21 18 22 13 23
-3 35 -6 25 -9 -14 -3 -16 -7 -6 -18 16 -20 36 -17 42 6 3 12 14 20 26 20 14
0 21 6 21 19 0 11 5 23 10 26 17 10 7 39 -15 46 -13 3 -19 13 -18 26 2 16 -4
22 -25 25 -43 6 -89 -9 -95 -32 -5 -21 -65 -52 -80 -43 -5 3 -7 17 -4 31 5 25
4 25 -9 7 -8 -10 -14 -27 -14 -37 0 -10 -7 -18 -15 -18 -8 0 -15 9 -15 19 0
11 -13 29 -30 41 -25 18 -30 28 -30 62 0 23 3 38 7 35 9 -9 33 60 33 96 0 15
6 30 14 33 8 3 13 14 11 24 -2 10 4 25 13 32 32 27 117 56 185 63 37 4 70 12
73 17 11 18 90 0 169 -38z m-1321 11 c-4 -8 -1 -15 4 -15 6 0 13 8 15 18 4 13
5 11 6 -5 1 -14 -5 -23 -13 -23 -18 0 -29 16 -21 30 9 15 15 12 9 -5z m78 -9
c4 -21 2 -23 -16 -17 -11 5 -21 13 -22 20 -1 6 0 7 3 1 7 -15 23 -12 23 5 0
23 7 18 12 -9z m48 13 c0 -5 -4 -8 -9 -5 -5 4 -12 0 -14 -6 -3 -8 -6 -6 -6 5
-1 9 6 17 14 17 8 0 15 -5 15 -11z m26 -14 c1 -8 -2 -15 -7 -15 -5 0 -9 10 -9
22 0 23 12 17 16 -7z m54 5 c0 -9 -7 -17 -15 -17 -8 0 -15 8 -15 17 0 9 7 17
15 17 8 0 15 -8 15 -17z m49 -2 c-1 -21 -2 -21 -7 -3 l-5 20 -8 -20 c-7 -19
-8 -19 -8 3 -1 13 5 22 14 22 9 0 15 -9 14 -22z m45 6 c8 -21 9 -20 -13 -20
-12 0 -17 6 -13 18 5 22 18 23 26 2z m66 -3 c0 -10 -9 -16 -25 -16 -16 0 -25
6 -25 16 0 11 9 17 25 17 16 0 25 -6 25 -17z m44 3 c3 -9 6 -17 6 -18 0 -1 -9
-2 -20 -2 -11 0 -20 1 -20 2 0 11 14 34 20 34 4 0 11 -7 14 -16z m1510 -5 c-3
-5 -10 -7 -15 -3 -5 3 -7 10 -3 15 3 5 10 7 15 3 5 -3 7 -10 3 -15z m41 12 c3
-5 1 -12 -5 -16 -5 -3 -10 1 -10 9 0 18 6 21 15 7z m-1988 -27 c-3 -3 -12 -4
-19 -1 -8 3 -5 6 6 6 11 1 17 -2 13 -5z m343 -97 c72 -47 95 -150 50 -222 -24
-39 -91 -75 -141 -75 -78 1 -159 85 -159 165 0 41 38 105 79 132 47 32 125 32
171 0z m580 -366 c0 -6 -5 -13 -10 -16 -6 -4 -7 -11 -4 -17 4 -6 1 -9 -7 -6
-8 3 -15 14 -17 26 -3 17 2 22 17 22 12 0 21 -4 21 -9z m465 -41 c32 -12 51
-38 37 -52 -7 -7 -12 -22 -12 -34 0 -59 -37 -73 -67 -26 -10 15 -23 31 -30 35
-16 10 -17 36 -3 72 10 27 14 27 75 5z m-535 -30 c0 -24 -5 -40 -15 -44 -15
-5 -21 -37 -8 -49 3 -4 12 1 19 11 12 15 13 13 7 -18 -7 -44 -6 -42 -29 -26
-15 11 -18 25 -17 63 3 84 7 99 26 100 13 1 17 -6 17 -37z m470 -106 c0 -8 -4
-12 -10 -9 -5 3 -10 13 -10 21 0 8 5 12 10 9 6 -3 10 -13 10 -21z m-316 -140
c4 -12 14 -14 36 -9 17 4 53 1 80 -6 41 -10 50 -17 50 -35 0 -12 7 -27 15 -34
8 -7 12 -17 8 -23 -3 -6 -1 -7 5 -3 7 4 12 3 12 -3 0 -6 6 -8 13 -6 15 6 31
-4 44 -29 9 -16 5 -25 -21 -52 -31 -32 -96 -55 -96 -34 0 5 -8 10 -18 10 -10
0 -28 8 -41 17 -18 12 -22 13 -16 2 4 -8 -24 20 -63 61 -46 48 -71 83 -72 99
0 20 4 22 25 17 23 -6 25 -4 19 19 -7 27 10 35 20 9z m-453 -131 c13 -16 12
-17 -3 -4 -10 7 -18 15 -18 17 0 8 8 3 21 -13z m79 -43 c0 -17 -17 -11 -24 8
-3 9 -9 24 -12 32 -4 8 3 5 15 -7 11 -12 21 -27 21 -33z m220 30 c0 -5 -7 -10
-15 -10 -8 0 -15 5 -15 10 0 6 7 10 15 10 8 0 15 -4 15 -10z m-100 -19 c0 -11
-49 -21 -55 -11 -2 4 -2 10 2 14 10 9 53 7 53 -3z m100 -21 c0 -5 -4 -10 -10
-10 -5 0 -10 5 -10 10 0 6 5 10 10 10 6 0 10 -4 10 -10z m-50 -10 c0 -5 -4
-10 -10 -10 -5 0 -10 5 -10 10 0 6 5 10 10 10 6 0 10 -4 10 -10z m-40 -10 c0
-5 -14 -10 -31 -10 -17 0 -28 4 -24 10 3 6 17 10 31 10 13 0 24 -4 24 -10z
m-195 -30 c3 -5 1 -10 -4 -10 -6 0 -11 5 -11 10 0 6 2 10 4 10 3 0 8 -4 11
-10z m-84 -41 c-13 -11 -26 -17 -29 -15 -3 3 6 14 19 25 13 11 26 17 29 14 3
-2 -6 -13 -19 -24z m108 -39 c0 -10 -3 -8 -9 5 -12 27 -12 43 0 25 5 -8 9 -22
9 -30z m-30 -15 l0 -20 -9 20 c-5 11 -9 27 -9 35 -1 13 0 13 9 0 5 -8 9 -24 9
-35z"/>
<path d="M1054 1124 c-18 -14 -18 -15 4 -4 12 6 22 13 22 15 0 8 -5 6 -26 -11z"/>
<path d="M318 983 c-2 -22 -9 -29 -30 -31 -22 -3 -28 -9 -28 -27 0 -18 6 -24
28 -27 21 -2 28 -9 30 -30 3 -22 9 -28 27 -28 18 0 24 6 27 28 2 21 9 28 31
30 21 3 27 9 27 28 0 20 -5 24 -30 24 -27 0 -30 3 -30 30 0 25 -4 30 -24 30
-19 0 -25 -6 -28 -27z"/>
</g>
</svg>
